<mxfile host="Electron" modified="2023-10-20T03:26:33.652Z" agent="Mozilla/5.0 (Windows NT 10.0; Win64; x64) AppleWebKit/537.36 (KHTML, like Gecko) draw.io/22.0.2 Chrome/114.0.5735.289 Electron/25.8.4 Safari/537.36" etag="nyot5tV_8-wq7mZtmd-L" version="22.0.2" type="device">
  <diagram id="C5RBs43oDa-KdzZeNtuy" name="Page-1">
    <mxGraphModel dx="2971" dy="1799" grid="1" gridSize="10" guides="1" tooltips="1" connect="1" arrows="1" fold="1" page="1" pageScale="1" pageWidth="827" pageHeight="1169" math="0" shadow="0">
      <root>
        <mxCell id="WIyWlLk6GJQsqaUBKTNV-0" />
        <mxCell id="WIyWlLk6GJQsqaUBKTNV-1" parent="WIyWlLk6GJQsqaUBKTNV-0" />
        <mxCell id="WIyWlLk6GJQsqaUBKTNV-3" value="Campeonato" style="rounded=1;whiteSpace=wrap;html=1;fontSize=12;glass=0;strokeWidth=1;shadow=0;" parent="WIyWlLk6GJQsqaUBKTNV-1" vertex="1">
          <mxGeometry x="320" y="-600" width="120" height="40" as="geometry" />
        </mxCell>
        <mxCell id="ZvgyUi1ns9W4Q0MeteP5-3" value="Liga" style="whiteSpace=wrap;html=1;rounded=1;glass=0;strokeWidth=1;shadow=0;" parent="WIyWlLk6GJQsqaUBKTNV-1" vertex="1">
          <mxGeometry x="870" y="220" width="120" height="60" as="geometry" />
        </mxCell>
        <mxCell id="ZvgyUi1ns9W4Q0MeteP5-7" value="Torneo" style="whiteSpace=wrap;html=1;rounded=1;glass=0;strokeWidth=1;shadow=0;" parent="WIyWlLk6GJQsqaUBKTNV-1" vertex="1">
          <mxGeometry x="1390" y="220" width="120" height="60" as="geometry" />
        </mxCell>
        <mxCell id="ZvgyUi1ns9W4Q0MeteP5-11" value="Tener" style="rhombus;whiteSpace=wrap;html=1;" parent="WIyWlLk6GJQsqaUBKTNV-1" vertex="1">
          <mxGeometry x="720" y="-520" width="80" height="80" as="geometry" />
        </mxCell>
        <mxCell id="ZvgyUi1ns9W4Q0MeteP5-14" value="Tener" style="rhombus;whiteSpace=wrap;html=1;rounded=1;glass=0;strokeWidth=1;shadow=0;" parent="WIyWlLk6GJQsqaUBKTNV-1" vertex="1">
          <mxGeometry x="1450" y="-520" width="80" height="80" as="geometry" />
        </mxCell>
        <mxCell id="ZvgyUi1ns9W4Q0MeteP5-17" value="Tener" style="rhombus;whiteSpace=wrap;html=1;rounded=1;glass=0;strokeWidth=1;shadow=0;" parent="WIyWlLk6GJQsqaUBKTNV-1" vertex="1">
          <mxGeometry x="890" y="500" width="80" height="80" as="geometry" />
        </mxCell>
        <mxCell id="ZvgyUi1ns9W4Q0MeteP5-24" value="" style="edgeStyle=orthogonalEdgeStyle;rounded=0;orthogonalLoop=1;jettySize=auto;html=1;" parent="WIyWlLk6GJQsqaUBKTNV-1" source="ZvgyUi1ns9W4Q0MeteP5-19" target="ZvgyUi1ns9W4Q0MeteP5-23" edge="1">
          <mxGeometry relative="1" as="geometry" />
        </mxCell>
        <mxCell id="ZvgyUi1ns9W4Q0MeteP5-19" value="Grupo" style="whiteSpace=wrap;html=1;rounded=1;glass=0;strokeWidth=1;shadow=0;" parent="WIyWlLk6GJQsqaUBKTNV-1" vertex="1">
          <mxGeometry x="870" y="730" width="120" height="60" as="geometry" />
        </mxCell>
        <mxCell id="ZvgyUi1ns9W4Q0MeteP5-23" value="Tener" style="rhombus;whiteSpace=wrap;html=1;rounded=1;glass=0;strokeWidth=1;shadow=0;" parent="WIyWlLk6GJQsqaUBKTNV-1" vertex="1">
          <mxGeometry x="890" y="900" width="80" height="80" as="geometry" />
        </mxCell>
        <mxCell id="ZvgyUi1ns9W4Q0MeteP5-25" value="Evento" style="whiteSpace=wrap;html=1;rounded=1;glass=0;strokeWidth=1;shadow=0;" parent="WIyWlLk6GJQsqaUBKTNV-1" vertex="1">
          <mxGeometry x="870" y="1130" width="120" height="60" as="geometry" />
        </mxCell>
        <mxCell id="ZvgyUi1ns9W4Q0MeteP5-30" value="Posicionar" style="rhombus;whiteSpace=wrap;html=1;rounded=1;glass=0;strokeWidth=1;shadow=0;" parent="WIyWlLk6GJQsqaUBKTNV-1" vertex="1">
          <mxGeometry x="600" y="790" width="80" height="80" as="geometry" />
        </mxCell>
        <mxCell id="ZvgyUi1ns9W4Q0MeteP5-34" value="POS" style="ellipse;whiteSpace=wrap;html=1;rounded=1;glass=0;strokeWidth=1;shadow=0;" parent="WIyWlLk6GJQsqaUBKTNV-1" vertex="1">
          <mxGeometry x="455" y="760" width="80" height="80" as="geometry" />
        </mxCell>
        <mxCell id="ZvgyUi1ns9W4Q0MeteP5-44" value="Estadísticas" style="ellipse;whiteSpace=wrap;html=1;aspect=fixed;" parent="WIyWlLk6GJQsqaUBKTNV-1" vertex="1">
          <mxGeometry x="455" y="850" width="80" height="80" as="geometry" />
        </mxCell>
        <mxCell id="ZvgyUi1ns9W4Q0MeteP5-46" value="Atleta" style="whiteSpace=wrap;html=1;rounded=1;glass=0;strokeWidth=1;shadow=0;" parent="WIyWlLk6GJQsqaUBKTNV-1" vertex="1">
          <mxGeometry x="580" y="1140" width="120" height="60" as="geometry" />
        </mxCell>
        <mxCell id="ZvgyUi1ns9W4Q0MeteP5-54" value="Posicionar" style="rhombus;whiteSpace=wrap;html=1;rounded=1;glass=0;strokeWidth=1;shadow=0;" parent="WIyWlLk6GJQsqaUBKTNV-1" vertex="1">
          <mxGeometry x="690" y="600" width="80" height="80" as="geometry" />
        </mxCell>
        <mxCell id="ZvgyUi1ns9W4Q0MeteP5-60" value="POS" style="ellipse;whiteSpace=wrap;html=1;rounded=1;glass=0;strokeWidth=1;shadow=0;" parent="WIyWlLk6GJQsqaUBKTNV-1" vertex="1">
          <mxGeometry x="460" y="510" width="80" height="80" as="geometry" />
        </mxCell>
        <mxCell id="ZvgyUi1ns9W4Q0MeteP5-62" value="Estadísticas" style="ellipse;whiteSpace=wrap;html=1;aspect=fixed;" parent="WIyWlLk6GJQsqaUBKTNV-1" vertex="1">
          <mxGeometry x="455" y="650" width="90" height="90" as="geometry" />
        </mxCell>
        <mxCell id="ZvgyUi1ns9W4Q0MeteP5-74" value="Facultad" style="whiteSpace=wrap;html=1;rounded=1;glass=0;strokeWidth=1;shadow=0;" parent="WIyWlLk6GJQsqaUBKTNV-1" vertex="1">
          <mxGeometry x="670" y="450" width="120" height="60" as="geometry" />
        </mxCell>
        <mxCell id="J-cm5UHr2P4jiwSGRvaJ-3" value="Realizar" style="rhombus;whiteSpace=wrap;html=1;rounded=1;glass=0;strokeWidth=1;shadow=0;" parent="WIyWlLk6GJQsqaUBKTNV-1" vertex="1">
          <mxGeometry x="970" y="1260" width="80" height="80" as="geometry" />
        </mxCell>
        <mxCell id="J-cm5UHr2P4jiwSGRvaJ-5" value="Localización" style="whiteSpace=wrap;html=1;rounded=1;glass=0;strokeWidth=1;shadow=0;" parent="WIyWlLk6GJQsqaUBKTNV-1" vertex="1">
          <mxGeometry x="950" y="1490" width="120" height="60" as="geometry" />
        </mxCell>
        <mxCell id="mLq6lORTRm4kwP11X9Qu-5" style="edgeStyle=none;shape=link;rounded=0;orthogonalLoop=1;jettySize=auto;html=1;exitX=0.5;exitY=1;exitDx=0;exitDy=0;" parent="WIyWlLk6GJQsqaUBKTNV-1" edge="1">
          <mxGeometry relative="1" as="geometry">
            <mxPoint x="380" y="-290" as="targetPoint" />
            <mxPoint x="380" y="-290" as="sourcePoint" />
          </mxGeometry>
        </mxCell>
        <mxCell id="mLq6lORTRm4kwP11X9Qu-0" value="Divide" style="shape=hexagon;perimeter=hexagonPerimeter2;whiteSpace=wrap;html=1;fixedSize=1;rounded=1;glass=0;strokeWidth=1;shadow=0;" parent="WIyWlLk6GJQsqaUBKTNV-1" vertex="1">
          <mxGeometry x="320" y="-490" width="120" height="70" as="geometry" />
        </mxCell>
        <mxCell id="mLq6lORTRm4kwP11X9Qu-9" value="" style="endArrow=none;html=1;rounded=0;entryX=0.156;entryY=1;entryDx=0;entryDy=0;entryPerimeter=0;exitX=0.5;exitY=0;exitDx=0;exitDy=0;" parent="WIyWlLk6GJQsqaUBKTNV-1" edge="1">
          <mxGeometry width="50" height="50" relative="1" as="geometry">
            <mxPoint x="-2006" y="-170" as="sourcePoint" />
            <mxPoint x="337.7199999999998" y="-420" as="targetPoint" />
          </mxGeometry>
        </mxCell>
        <mxCell id="mLq6lORTRm4kwP11X9Qu-10" value="" style="endArrow=none;html=1;rounded=0;entryX=0.375;entryY=1;entryDx=0;entryDy=0;exitX=0.5;exitY=0;exitDx=0;exitDy=0;" parent="WIyWlLk6GJQsqaUBKTNV-1" source="mLq6lORTRm4kwP11X9Qu-15" target="mLq6lORTRm4kwP11X9Qu-0" edge="1">
          <mxGeometry width="50" height="50" relative="1" as="geometry">
            <mxPoint x="319" y="-200" as="sourcePoint" />
            <mxPoint x="319" y="-290" as="targetPoint" />
          </mxGeometry>
        </mxCell>
        <mxCell id="mLq6lORTRm4kwP11X9Qu-12" value="" style="endArrow=none;html=1;rounded=0;entryX=0.625;entryY=1;entryDx=0;entryDy=0;exitX=0.5;exitY=0;exitDx=0;exitDy=0;" parent="WIyWlLk6GJQsqaUBKTNV-1" source="mLq6lORTRm4kwP11X9Qu-16" target="mLq6lORTRm4kwP11X9Qu-0" edge="1">
          <mxGeometry width="50" height="50" relative="1" as="geometry">
            <mxPoint x="439" y="-200" as="sourcePoint" />
            <mxPoint x="437.46000000000004" y="-298" as="targetPoint" />
          </mxGeometry>
        </mxCell>
        <mxCell id="mLq6lORTRm4kwP11X9Qu-14" value="Equipos Normales" style="rounded=0;whiteSpace=wrap;html=1;" parent="WIyWlLk6GJQsqaUBKTNV-1" vertex="1">
          <mxGeometry x="-2050" y="-170" width="90" height="60" as="geometry" />
        </mxCell>
        <mxCell id="mLq6lORTRm4kwP11X9Qu-15" value="Individuales" style="rounded=0;whiteSpace=wrap;html=1;" parent="WIyWlLk6GJQsqaUBKTNV-1" vertex="1">
          <mxGeometry x="-641" y="-210" width="90" height="60" as="geometry" />
        </mxCell>
        <mxCell id="mLq6lORTRm4kwP11X9Qu-16" value="Equipo&lt;br&gt;Gimnasia Musical" style="rounded=0;whiteSpace=wrap;html=1;" parent="WIyWlLk6GJQsqaUBKTNV-1" vertex="1">
          <mxGeometry x="50" y="-220" width="90" height="60" as="geometry" />
        </mxCell>
        <mxCell id="mLq6lORTRm4kwP11X9Qu-17" value="Equipos con Subdivisiones" style="rounded=0;whiteSpace=wrap;html=1;" parent="WIyWlLk6GJQsqaUBKTNV-1" vertex="1">
          <mxGeometry x="510" y="-210" width="90" height="60" as="geometry" />
        </mxCell>
        <mxCell id="mLq6lORTRm4kwP11X9Qu-53" value="Tener" style="rhombus;whiteSpace=wrap;html=1;" parent="WIyWlLk6GJQsqaUBKTNV-1" vertex="1">
          <mxGeometry x="110" y="-620" width="80" height="80" as="geometry" />
        </mxCell>
        <mxCell id="mLq6lORTRm4kwP11X9Qu-60" value="" style="edgeStyle=orthogonalEdgeStyle;fontSize=12;html=1;endArrow=ERzeroToOne;endFill=1;rounded=0;exitX=0.5;exitY=1;exitDx=0;exitDy=0;entryX=0.5;entryY=0;entryDx=0;entryDy=0;" parent="WIyWlLk6GJQsqaUBKTNV-1" source="ZvgyUi1ns9W4Q0MeteP5-11" target="ZvgyUi1ns9W4Q0MeteP5-3" edge="1">
          <mxGeometry width="100" height="100" relative="1" as="geometry">
            <mxPoint x="470" y="-710" as="sourcePoint" />
            <mxPoint x="570" y="-810" as="targetPoint" />
          </mxGeometry>
        </mxCell>
        <mxCell id="mLq6lORTRm4kwP11X9Qu-61" value="" style="edgeStyle=orthogonalEdgeStyle;fontSize=12;html=1;endArrow=ERmany;rounded=0;curved=1;entryX=0;entryY=0.5;entryDx=0;entryDy=0;exitX=1;exitY=0.5;exitDx=0;exitDy=0;" parent="WIyWlLk6GJQsqaUBKTNV-1" source="mLq6lORTRm4kwP11X9Qu-53" target="WIyWlLk6GJQsqaUBKTNV-3" edge="1">
          <mxGeometry width="100" height="100" relative="1" as="geometry">
            <mxPoint x="480" y="-610" as="sourcePoint" />
            <mxPoint x="580" y="-710" as="targetPoint" />
          </mxGeometry>
        </mxCell>
        <mxCell id="mLq6lORTRm4kwP11X9Qu-62" value="" style="edgeStyle=orthogonalEdgeStyle;fontSize=12;html=1;endArrow=ERmandOne;rounded=0;curved=1;entryX=1;entryY=0.5;entryDx=0;entryDy=0;" parent="WIyWlLk6GJQsqaUBKTNV-1" source="mLq6lORTRm4kwP11X9Qu-53" target="mLq6lORTRm4kwP11X9Qu-64" edge="1">
          <mxGeometry width="100" height="100" relative="1" as="geometry">
            <mxPoint x="210" y="-730" as="sourcePoint" />
            <mxPoint x="310" y="-830" as="targetPoint" />
          </mxGeometry>
        </mxCell>
        <mxCell id="mLq6lORTRm4kwP11X9Qu-64" value="Modalidad Deportiva" style="rounded=1;whiteSpace=wrap;html=1;" parent="WIyWlLk6GJQsqaUBKTNV-1" vertex="1">
          <mxGeometry x="-80" y="-610" width="120" height="60" as="geometry" />
        </mxCell>
        <mxCell id="mLq6lORTRm4kwP11X9Qu-66" value="" style="edgeStyle=orthogonalEdgeStyle;fontSize=12;html=1;endArrow=ERmandOne;rounded=0;entryX=1;entryY=0.25;entryDx=0;entryDy=0;exitX=0.5;exitY=0;exitDx=0;exitDy=0;" parent="WIyWlLk6GJQsqaUBKTNV-1" source="ZvgyUi1ns9W4Q0MeteP5-14" target="WIyWlLk6GJQsqaUBKTNV-3" edge="1">
          <mxGeometry width="100" height="100" relative="1" as="geometry">
            <mxPoint x="220" y="-720" as="sourcePoint" />
            <mxPoint x="320" y="-820" as="targetPoint" />
          </mxGeometry>
        </mxCell>
        <mxCell id="mLq6lORTRm4kwP11X9Qu-67" value="" style="endArrow=none;html=1;rounded=0;entryX=0.5;entryY=1;entryDx=0;entryDy=0;" parent="WIyWlLk6GJQsqaUBKTNV-1" source="mLq6lORTRm4kwP11X9Qu-0" target="WIyWlLk6GJQsqaUBKTNV-3" edge="1">
          <mxGeometry relative="1" as="geometry">
            <mxPoint x="340" y="-440" as="sourcePoint" />
            <mxPoint x="500" y="-440" as="targetPoint" />
          </mxGeometry>
        </mxCell>
        <mxCell id="mLq6lORTRm4kwP11X9Qu-68" value="1" style="resizable=0;html=1;whiteSpace=wrap;align=right;verticalAlign=bottom;" parent="mLq6lORTRm4kwP11X9Qu-67" connectable="0" vertex="1">
          <mxGeometry x="1" relative="1" as="geometry" />
        </mxCell>
        <mxCell id="mLq6lORTRm4kwP11X9Qu-74" value="" style="edgeStyle=orthogonalEdgeStyle;fontSize=12;html=1;endArrow=ERmandOne;rounded=0;entryX=1;entryY=0.75;entryDx=0;entryDy=0;exitX=0.5;exitY=0;exitDx=0;exitDy=0;elbow=vertical;" parent="WIyWlLk6GJQsqaUBKTNV-1" source="ZvgyUi1ns9W4Q0MeteP5-11" target="WIyWlLk6GJQsqaUBKTNV-3" edge="1">
          <mxGeometry width="100" height="100" relative="1" as="geometry">
            <mxPoint x="220" y="-720" as="sourcePoint" />
            <mxPoint x="320" y="-820" as="targetPoint" />
          </mxGeometry>
        </mxCell>
        <mxCell id="mLq6lORTRm4kwP11X9Qu-75" value="" style="edgeStyle=orthogonalEdgeStyle;fontSize=12;html=1;endArrow=ERzeroToOne;endFill=1;rounded=0;entryX=0.5;entryY=0;entryDx=0;entryDy=0;exitX=0.5;exitY=1;exitDx=0;exitDy=0;" parent="WIyWlLk6GJQsqaUBKTNV-1" source="ZvgyUi1ns9W4Q0MeteP5-14" target="ZvgyUi1ns9W4Q0MeteP5-7" edge="1">
          <mxGeometry width="100" height="100" relative="1" as="geometry">
            <mxPoint x="1110" y="-419" as="sourcePoint" />
            <mxPoint x="490" y="420" as="targetPoint" />
          </mxGeometry>
        </mxCell>
        <mxCell id="mLq6lORTRm4kwP11X9Qu-76" value="" style="edgeStyle=orthogonalEdgeStyle;fontSize=12;html=1;endArrow=ERmandOne;rounded=0;entryX=0.5;entryY=1;entryDx=0;entryDy=0;exitX=0.5;exitY=0;exitDx=0;exitDy=0;" parent="WIyWlLk6GJQsqaUBKTNV-1" source="ZvgyUi1ns9W4Q0MeteP5-17" target="ZvgyUi1ns9W4Q0MeteP5-3" edge="1">
          <mxGeometry width="100" height="100" relative="1" as="geometry">
            <mxPoint x="850" y="410" as="sourcePoint" />
            <mxPoint x="930" y="340" as="targetPoint" />
          </mxGeometry>
        </mxCell>
        <mxCell id="mLq6lORTRm4kwP11X9Qu-79" value="" style="edgeStyle=orthogonalEdgeStyle;fontSize=12;html=1;endArrow=ERoneToMany;rounded=0;entryX=0.5;entryY=0;entryDx=0;entryDy=0;" parent="WIyWlLk6GJQsqaUBKTNV-1" source="ZvgyUi1ns9W4Q0MeteP5-17" target="ZvgyUi1ns9W4Q0MeteP5-19" edge="1">
          <mxGeometry width="100" height="100" relative="1" as="geometry">
            <mxPoint x="910" y="680" as="sourcePoint" />
            <mxPoint x="1010" y="580" as="targetPoint" />
          </mxGeometry>
        </mxCell>
        <mxCell id="mLq6lORTRm4kwP11X9Qu-80" style="edgeStyle=none;rounded=0;orthogonalLoop=1;jettySize=auto;html=1;exitX=1;exitY=1;exitDx=0;exitDy=0;" parent="WIyWlLk6GJQsqaUBKTNV-1" source="ZvgyUi1ns9W4Q0MeteP5-54" target="ZvgyUi1ns9W4Q0MeteP5-54" edge="1">
          <mxGeometry relative="1" as="geometry" />
        </mxCell>
        <mxCell id="mLq6lORTRm4kwP11X9Qu-81" value="" style="edgeStyle=orthogonalEdgeStyle;fontSize=12;html=1;endArrow=ERzeroToMany;endFill=1;rounded=0;entryX=0;entryY=0.25;entryDx=0;entryDy=0;exitX=0.5;exitY=1;exitDx=0;exitDy=0;" parent="WIyWlLk6GJQsqaUBKTNV-1" source="ZvgyUi1ns9W4Q0MeteP5-54" target="ZvgyUi1ns9W4Q0MeteP5-19" edge="1">
          <mxGeometry width="100" height="100" relative="1" as="geometry">
            <mxPoint x="710" y="700" as="sourcePoint" />
            <mxPoint x="810" y="600" as="targetPoint" />
          </mxGeometry>
        </mxCell>
        <mxCell id="mLq6lORTRm4kwP11X9Qu-82" value="" style="fontSize=12;html=1;endArrow=ERoneToMany;rounded=0;entryX=0.5;entryY=1;entryDx=0;entryDy=0;exitX=0.5;exitY=0;exitDx=0;exitDy=0;" parent="WIyWlLk6GJQsqaUBKTNV-1" source="ZvgyUi1ns9W4Q0MeteP5-54" target="ZvgyUi1ns9W4Q0MeteP5-74" edge="1">
          <mxGeometry width="100" height="100" relative="1" as="geometry">
            <mxPoint x="710" y="700" as="sourcePoint" />
            <mxPoint x="580" y="610" as="targetPoint" />
          </mxGeometry>
        </mxCell>
        <mxCell id="mLq6lORTRm4kwP11X9Qu-90" value="" style="endArrow=none;html=1;rounded=0;exitX=1;exitY=0.5;exitDx=0;exitDy=0;" parent="WIyWlLk6GJQsqaUBKTNV-1" source="ZvgyUi1ns9W4Q0MeteP5-62" target="ZvgyUi1ns9W4Q0MeteP5-54" edge="1">
          <mxGeometry relative="1" as="geometry">
            <mxPoint x="440" y="650" as="sourcePoint" />
            <mxPoint x="600" y="650" as="targetPoint" />
          </mxGeometry>
        </mxCell>
        <mxCell id="mLq6lORTRm4kwP11X9Qu-91" value="" style="endArrow=none;html=1;rounded=0;exitX=1;exitY=0.5;exitDx=0;exitDy=0;" parent="WIyWlLk6GJQsqaUBKTNV-1" source="ZvgyUi1ns9W4Q0MeteP5-60" target="ZvgyUi1ns9W4Q0MeteP5-54" edge="1">
          <mxGeometry relative="1" as="geometry">
            <mxPoint x="490" y="590" as="sourcePoint" />
            <mxPoint x="690" y="640" as="targetPoint" />
          </mxGeometry>
        </mxCell>
        <mxCell id="mLq6lORTRm4kwP11X9Qu-92" value="" style="edgeStyle=orthogonalEdgeStyle;fontSize=12;html=1;endArrow=ERoneToMany;rounded=0;entryX=0;entryY=0.75;entryDx=0;entryDy=0;exitX=0.5;exitY=0;exitDx=0;exitDy=0;" parent="WIyWlLk6GJQsqaUBKTNV-1" source="ZvgyUi1ns9W4Q0MeteP5-30" target="ZvgyUi1ns9W4Q0MeteP5-19" edge="1">
          <mxGeometry width="100" height="100" relative="1" as="geometry">
            <mxPoint x="590" y="870" as="sourcePoint" />
            <mxPoint x="570" y="700" as="targetPoint" />
          </mxGeometry>
        </mxCell>
        <mxCell id="mLq6lORTRm4kwP11X9Qu-93" value="" style="edgeStyle=orthogonalEdgeStyle;fontSize=12;html=1;endArrow=ERzeroToOne;endFill=1;rounded=0;entryX=0.5;entryY=1;entryDx=0;entryDy=0;exitX=1;exitY=0.5;exitDx=0;exitDy=0;" parent="WIyWlLk6GJQsqaUBKTNV-1" source="mLq6lORTRm4kwP11X9Qu-94" edge="1">
          <mxGeometry width="100" height="100" relative="1" as="geometry">
            <mxPoint x="1430" y="1162" as="sourcePoint" />
            <mxPoint x="1450" y="303" as="targetPoint" />
          </mxGeometry>
        </mxCell>
        <mxCell id="mLq6lORTRm4kwP11X9Qu-94" value="Tener" style="rhombus;whiteSpace=wrap;html=1;rounded=1;glass=0;strokeWidth=1;shadow=0;" parent="WIyWlLk6GJQsqaUBKTNV-1" vertex="1">
          <mxGeometry x="1330" y="1120" width="80" height="80" as="geometry" />
        </mxCell>
        <mxCell id="mLq6lORTRm4kwP11X9Qu-97" value="" style="fontSize=12;html=1;endArrow=ERmany;rounded=0;entryX=1;entryY=0.5;entryDx=0;entryDy=0;exitX=0;exitY=0.5;exitDx=0;exitDy=0;" parent="WIyWlLk6GJQsqaUBKTNV-1" source="mLq6lORTRm4kwP11X9Qu-94" target="ZvgyUi1ns9W4Q0MeteP5-25" edge="1">
          <mxGeometry width="100" height="100" relative="1" as="geometry">
            <mxPoint x="1280" y="1160" as="sourcePoint" />
            <mxPoint x="1380" y="1060" as="targetPoint" />
          </mxGeometry>
        </mxCell>
        <mxCell id="mLq6lORTRm4kwP11X9Qu-100" value="" style="endArrow=none;html=1;rounded=0;entryX=0;entryY=0;entryDx=0;entryDy=0;exitX=1;exitY=0.5;exitDx=0;exitDy=0;" parent="WIyWlLk6GJQsqaUBKTNV-1" source="ZvgyUi1ns9W4Q0MeteP5-34" target="ZvgyUi1ns9W4Q0MeteP5-30" edge="1">
          <mxGeometry relative="1" as="geometry">
            <mxPoint x="540" y="810" as="sourcePoint" />
            <mxPoint x="640" y="800" as="targetPoint" />
          </mxGeometry>
        </mxCell>
        <mxCell id="mLq6lORTRm4kwP11X9Qu-101" value="" style="endArrow=none;html=1;rounded=0;entryX=0;entryY=1;entryDx=0;entryDy=0;exitX=1.021;exitY=0.408;exitDx=0;exitDy=0;exitPerimeter=0;" parent="WIyWlLk6GJQsqaUBKTNV-1" source="ZvgyUi1ns9W4Q0MeteP5-44" target="ZvgyUi1ns9W4Q0MeteP5-30" edge="1">
          <mxGeometry relative="1" as="geometry">
            <mxPoint x="545" y="810" as="sourcePoint" />
            <mxPoint x="630" y="820" as="targetPoint" />
            <Array as="points" />
          </mxGeometry>
        </mxCell>
        <mxCell id="mLq6lORTRm4kwP11X9Qu-102" value="" style="fontSize=12;html=1;endArrow=ERmany;rounded=0;entryX=0.5;entryY=0;entryDx=0;entryDy=0;exitX=0.5;exitY=1;exitDx=0;exitDy=0;" parent="WIyWlLk6GJQsqaUBKTNV-1" source="ZvgyUi1ns9W4Q0MeteP5-30" target="ZvgyUi1ns9W4Q0MeteP5-46" edge="1">
          <mxGeometry width="100" height="100" relative="1" as="geometry">
            <mxPoint x="510" y="1010" as="sourcePoint" />
            <mxPoint x="610" y="910" as="targetPoint" />
          </mxGeometry>
        </mxCell>
        <mxCell id="mLq6lORTRm4kwP11X9Qu-103" value="" style="fontSize=12;html=1;endArrow=ERmany;rounded=0;entryX=0.5;entryY=0;entryDx=0;entryDy=0;exitX=0.5;exitY=1;exitDx=0;exitDy=0;" parent="WIyWlLk6GJQsqaUBKTNV-1" source="ZvgyUi1ns9W4Q0MeteP5-23" target="ZvgyUi1ns9W4Q0MeteP5-25" edge="1">
          <mxGeometry width="100" height="100" relative="1" as="geometry">
            <mxPoint x="929.5" y="1020" as="sourcePoint" />
            <mxPoint x="929.5" y="1110" as="targetPoint" />
            <Array as="points" />
          </mxGeometry>
        </mxCell>
        <mxCell id="mLq6lORTRm4kwP11X9Qu-104" value="" style="edgeStyle=orthogonalEdgeStyle;fontSize=12;html=1;endArrow=ERmandOne;rounded=0;entryX=0.5;entryY=0;entryDx=0;entryDy=0;exitX=0.5;exitY=1;exitDx=0;exitDy=0;" parent="WIyWlLk6GJQsqaUBKTNV-1" source="J-cm5UHr2P4jiwSGRvaJ-3" target="J-cm5UHr2P4jiwSGRvaJ-5" edge="1">
          <mxGeometry width="100" height="100" relative="1" as="geometry">
            <mxPoint x="990" y="1370" as="sourcePoint" />
            <mxPoint x="1090" y="1270" as="targetPoint" />
          </mxGeometry>
        </mxCell>
        <mxCell id="mLq6lORTRm4kwP11X9Qu-105" value="" style="fontSize=12;html=1;endArrow=ERzeroToMany;endFill=1;rounded=0;entryX=0.75;entryY=1;entryDx=0;entryDy=0;exitX=0.5;exitY=0;exitDx=0;exitDy=0;edgeStyle=orthogonalEdgeStyle;" parent="WIyWlLk6GJQsqaUBKTNV-1" source="J-cm5UHr2P4jiwSGRvaJ-3" target="ZvgyUi1ns9W4Q0MeteP5-25" edge="1">
          <mxGeometry width="100" height="100" relative="1" as="geometry">
            <mxPoint x="990" y="1370" as="sourcePoint" />
            <mxPoint x="1090" y="1270" as="targetPoint" />
          </mxGeometry>
        </mxCell>
        <mxCell id="mLq6lORTRm4kwP11X9Qu-106" value="" style="endArrow=none;html=1;rounded=0;entryX=0.5;entryY=0;entryDx=0;entryDy=0;exitX=0.817;exitY=0.962;exitDx=0;exitDy=0;exitPerimeter=0;" parent="WIyWlLk6GJQsqaUBKTNV-1" source="mLq6lORTRm4kwP11X9Qu-0" target="mLq6lORTRm4kwP11X9Qu-17" edge="1">
          <mxGeometry relative="1" as="geometry">
            <mxPoint x="450" y="-320" as="sourcePoint" />
            <mxPoint x="610" y="-320" as="targetPoint" />
          </mxGeometry>
        </mxCell>
        <mxCell id="mLq6lORTRm4kwP11X9Qu-109" value="Enfrentamiento" style="rounded=1;whiteSpace=wrap;html=1;" parent="WIyWlLk6GJQsqaUBKTNV-1" vertex="1">
          <mxGeometry x="640" y="-70" width="120" height="60" as="geometry" />
        </mxCell>
        <mxCell id="mLq6lORTRm4kwP11X9Qu-110" value="Tener" style="rhombus;whiteSpace=wrap;html=1;" parent="WIyWlLk6GJQsqaUBKTNV-1" vertex="1">
          <mxGeometry x="650" y="80" width="80" height="80" as="geometry" />
        </mxCell>
        <mxCell id="mLq6lORTRm4kwP11X9Qu-114" value="Estar" style="rhombus;whiteSpace=wrap;html=1;" parent="WIyWlLk6GJQsqaUBKTNV-1" vertex="1">
          <mxGeometry x="515" y="210" width="80" height="80" as="geometry" />
        </mxCell>
        <mxCell id="mLq6lORTRm4kwP11X9Qu-115" value="" style="edgeStyle=orthogonalEdgeStyle;fontSize=12;html=1;endArrow=ERzeroToMany;endFill=1;rounded=0;entryX=0.5;entryY=1;entryDx=0;entryDy=0;exitX=0.5;exitY=0;exitDx=0;exitDy=0;" parent="WIyWlLk6GJQsqaUBKTNV-1" source="mLq6lORTRm4kwP11X9Qu-114" edge="1">
          <mxGeometry width="100" height="100" relative="1" as="geometry">
            <mxPoint x="550" y="190" as="sourcePoint" />
            <mxPoint x="554.5" y="-150" as="targetPoint" />
            <Array as="points">
              <mxPoint x="555" y="160" />
            </Array>
          </mxGeometry>
        </mxCell>
        <mxCell id="mLq6lORTRm4kwP11X9Qu-117" value="Enfrentar" style="rhombus;whiteSpace=wrap;html=1;" parent="WIyWlLk6GJQsqaUBKTNV-1" vertex="1">
          <mxGeometry x="430" y="10" width="80" height="80" as="geometry" />
        </mxCell>
        <mxCell id="mLq6lORTRm4kwP11X9Qu-119" value="" style="edgeStyle=none;rounded=0;orthogonalLoop=1;jettySize=auto;html=1;" parent="WIyWlLk6GJQsqaUBKTNV-1" source="mLq6lORTRm4kwP11X9Qu-118" target="mLq6lORTRm4kwP11X9Qu-117" edge="1">
          <mxGeometry relative="1" as="geometry" />
        </mxCell>
        <mxCell id="mLq6lORTRm4kwP11X9Qu-118" value="Score" style="ellipse;whiteSpace=wrap;html=1;rounded=1;glass=0;strokeWidth=1;shadow=0;" parent="WIyWlLk6GJQsqaUBKTNV-1" vertex="1">
          <mxGeometry x="430" y="170" width="80" height="80" as="geometry" />
        </mxCell>
        <mxCell id="mLq6lORTRm4kwP11X9Qu-120" value="" style="edgeStyle=entityRelationEdgeStyle;fontSize=12;html=1;endArrow=ERzeroToMany;endFill=1;rounded=0;entryX=0;entryY=0.5;entryDx=0;entryDy=0;exitX=1;exitY=0.5;exitDx=0;exitDy=0;" parent="WIyWlLk6GJQsqaUBKTNV-1" source="mLq6lORTRm4kwP11X9Qu-117" target="mLq6lORTRm4kwP11X9Qu-109" edge="1">
          <mxGeometry width="100" height="100" relative="1" as="geometry">
            <mxPoint x="470" y="60" as="sourcePoint" />
            <mxPoint x="570" y="-40" as="targetPoint" />
          </mxGeometry>
        </mxCell>
        <mxCell id="mLq6lORTRm4kwP11X9Qu-121" style="edgeStyle=none;rounded=0;orthogonalLoop=1;jettySize=auto;html=1;exitX=0.5;exitY=1;exitDx=0;exitDy=0;" parent="WIyWlLk6GJQsqaUBKTNV-1" source="mLq6lORTRm4kwP11X9Qu-17" target="mLq6lORTRm4kwP11X9Qu-17" edge="1">
          <mxGeometry relative="1" as="geometry" />
        </mxCell>
        <mxCell id="mLq6lORTRm4kwP11X9Qu-122" value="" style="edgeStyle=orthogonalEdgeStyle;fontSize=12;html=1;endArrow=ERmandOne;rounded=0;exitX=0.5;exitY=0;exitDx=0;exitDy=0;entryX=0.25;entryY=1;entryDx=0;entryDy=0;" parent="WIyWlLk6GJQsqaUBKTNV-1" source="mLq6lORTRm4kwP11X9Qu-117" target="mLq6lORTRm4kwP11X9Qu-17" edge="1">
          <mxGeometry width="100" height="100" relative="1" as="geometry">
            <mxPoint x="430" as="sourcePoint" />
            <mxPoint x="540" y="-120" as="targetPoint" />
          </mxGeometry>
        </mxCell>
        <mxCell id="mLq6lORTRm4kwP11X9Qu-124" value="Composición" style="rounded=1;whiteSpace=wrap;html=1;" parent="WIyWlLk6GJQsqaUBKTNV-1" vertex="1">
          <mxGeometry x="100" y="150" width="120" height="60" as="geometry" />
        </mxCell>
        <mxCell id="mLq6lORTRm4kwP11X9Qu-126" value="Tener" style="rhombus;whiteSpace=wrap;html=1;rounded=1;" parent="WIyWlLk6GJQsqaUBKTNV-1" vertex="1">
          <mxGeometry x="130" y="-100" width="80" height="80" as="geometry" />
        </mxCell>
        <mxCell id="mLq6lORTRm4kwP11X9Qu-129" value="" style="edgeStyle=orthogonalEdgeStyle;fontSize=12;html=1;endArrow=ERmandOne;rounded=0;entryX=1;entryY=0.5;entryDx=0;entryDy=0;" parent="WIyWlLk6GJQsqaUBKTNV-1" source="mLq6lORTRm4kwP11X9Qu-126" target="mLq6lORTRm4kwP11X9Qu-16" edge="1">
          <mxGeometry width="100" height="100" relative="1" as="geometry">
            <mxPoint x="50" y="-70" as="sourcePoint" />
            <mxPoint x="150" y="-170" as="targetPoint" />
          </mxGeometry>
        </mxCell>
        <mxCell id="mLq6lORTRm4kwP11X9Qu-130" value="" style="edgeStyle=orthogonalEdgeStyle;fontSize=12;html=1;endArrow=ERoneToMany;rounded=0;entryX=0.564;entryY=-0.089;entryDx=0;entryDy=0;entryPerimeter=0;" parent="WIyWlLk6GJQsqaUBKTNV-1" target="mLq6lORTRm4kwP11X9Qu-124" edge="1">
          <mxGeometry width="100" height="100" relative="1" as="geometry">
            <mxPoint x="170" y="-21" as="sourcePoint" />
            <mxPoint x="180" y="147" as="targetPoint" />
            <Array as="points">
              <mxPoint x="170" y="-21" />
              <mxPoint x="170" y="65" />
              <mxPoint x="178" y="65" />
            </Array>
          </mxGeometry>
        </mxCell>
        <mxCell id="mLq6lORTRm4kwP11X9Qu-131" style="edgeStyle=none;rounded=0;orthogonalLoop=1;jettySize=auto;html=1;exitX=0.5;exitY=1;exitDx=0;exitDy=0;" parent="WIyWlLk6GJQsqaUBKTNV-1" source="mLq6lORTRm4kwP11X9Qu-124" target="mLq6lORTRm4kwP11X9Qu-124" edge="1">
          <mxGeometry relative="1" as="geometry" />
        </mxCell>
        <mxCell id="mLq6lORTRm4kwP11X9Qu-132" value="Tener" style="rhombus;whiteSpace=wrap;html=1;rounded=1;" parent="WIyWlLk6GJQsqaUBKTNV-1" vertex="1">
          <mxGeometry x="90" y="270" width="80" height="80" as="geometry" />
        </mxCell>
        <mxCell id="mLq6lORTRm4kwP11X9Qu-133" value="Puntuación" style="rounded=1;whiteSpace=wrap;html=1;" parent="WIyWlLk6GJQsqaUBKTNV-1" vertex="1">
          <mxGeometry x="35" y="390" width="120" height="60" as="geometry" />
        </mxCell>
        <mxCell id="mLq6lORTRm4kwP11X9Qu-134" value="" style="edgeStyle=orthogonalEdgeStyle;fontSize=12;html=1;endArrow=ERzeroToMany;endFill=1;rounded=0;entryX=0.5;entryY=0;entryDx=0;entryDy=0;exitX=0.5;exitY=1;exitDx=0;exitDy=0;" parent="WIyWlLk6GJQsqaUBKTNV-1" source="mLq6lORTRm4kwP11X9Qu-132" target="mLq6lORTRm4kwP11X9Qu-133" edge="1">
          <mxGeometry width="100" height="100" relative="1" as="geometry">
            <mxPoint x="50" y="270" as="sourcePoint" />
            <mxPoint x="150" y="170" as="targetPoint" />
          </mxGeometry>
        </mxCell>
        <mxCell id="mLq6lORTRm4kwP11X9Qu-135" value="" style="edgeStyle=orthogonalEdgeStyle;fontSize=12;html=1;endArrow=ERzeroToMany;endFill=1;rounded=0;exitX=1;exitY=0;exitDx=0;exitDy=0;" parent="WIyWlLk6GJQsqaUBKTNV-1" source="mLq6lORTRm4kwP11X9Qu-132" edge="1">
          <mxGeometry width="100" height="100" relative="1" as="geometry">
            <mxPoint x="130" y="270" as="sourcePoint" />
            <mxPoint x="150" y="210" as="targetPoint" />
          </mxGeometry>
        </mxCell>
        <mxCell id="mLq6lORTRm4kwP11X9Qu-137" value="Tener" style="rhombus;whiteSpace=wrap;html=1;rounded=1;" parent="WIyWlLk6GJQsqaUBKTNV-1" vertex="1">
          <mxGeometry x="180" y="270" width="80" height="80" as="geometry" />
        </mxCell>
        <mxCell id="mLq6lORTRm4kwP11X9Qu-139" value="" style="edgeStyle=orthogonalEdgeStyle;fontSize=12;html=1;endArrow=ERmandOne;rounded=0;entryX=0.75;entryY=1;entryDx=0;entryDy=0;exitX=0.5;exitY=0;exitDx=0;exitDy=0;" parent="WIyWlLk6GJQsqaUBKTNV-1" source="mLq6lORTRm4kwP11X9Qu-137" target="mLq6lORTRm4kwP11X9Qu-124" edge="1">
          <mxGeometry width="100" height="100" relative="1" as="geometry">
            <mxPoint x="210" y="310" as="sourcePoint" />
            <mxPoint x="310" y="210" as="targetPoint" />
          </mxGeometry>
        </mxCell>
        <mxCell id="mLq6lORTRm4kwP11X9Qu-140" value="Competir" style="rhombus;whiteSpace=wrap;html=1;rounded=1;" parent="WIyWlLk6GJQsqaUBKTNV-1" vertex="1">
          <mxGeometry x="35" y="-79" width="80" height="80" as="geometry" />
        </mxCell>
        <mxCell id="mLq6lORTRm4kwP11X9Qu-142" value="" style="fontSize=12;html=1;endArrow=ERoneToMany;rounded=0;entryX=0.433;entryY=1.078;entryDx=0;entryDy=0;entryPerimeter=0;exitX=0.5;exitY=0;exitDx=0;exitDy=0;" parent="WIyWlLk6GJQsqaUBKTNV-1" source="mLq6lORTRm4kwP11X9Qu-140" edge="1">
          <mxGeometry width="100" height="100" relative="1" as="geometry">
            <mxPoint x="-80" y="441" as="sourcePoint" />
            <mxPoint x="88.97000000000003" y="-154.31999999999994" as="targetPoint" />
          </mxGeometry>
        </mxCell>
        <mxCell id="mLq6lORTRm4kwP11X9Qu-143" value="Atleta" style="whiteSpace=wrap;html=1;rounded=1;glass=0;strokeWidth=1;shadow=0;" parent="WIyWlLk6GJQsqaUBKTNV-1" vertex="1">
          <mxGeometry x="155" y="490" width="120" height="60" as="geometry" />
        </mxCell>
        <mxCell id="mLq6lORTRm4kwP11X9Qu-145" value="" style="edgeStyle=orthogonalEdgeStyle;fontSize=12;html=1;endArrow=ERoneToMany;rounded=0;entryX=0.5;entryY=0;entryDx=0;entryDy=0;exitX=0.5;exitY=1;exitDx=0;exitDy=0;" parent="WIyWlLk6GJQsqaUBKTNV-1" source="mLq6lORTRm4kwP11X9Qu-137" target="mLq6lORTRm4kwP11X9Qu-143" edge="1">
          <mxGeometry width="100" height="100" relative="1" as="geometry">
            <mxPoint x="240" y="380" as="sourcePoint" />
            <mxPoint x="340" y="280" as="targetPoint" />
          </mxGeometry>
        </mxCell>
        <mxCell id="mLq6lORTRm4kwP11X9Qu-146" value="Atleta" style="whiteSpace=wrap;html=1;rounded=1;glass=0;strokeWidth=1;shadow=0;" parent="WIyWlLk6GJQsqaUBKTNV-1" vertex="1">
          <mxGeometry x="275" y="20" width="120" height="60" as="geometry" />
        </mxCell>
        <mxCell id="mLq6lORTRm4kwP11X9Qu-148" value="" style="edgeStyle=orthogonalEdgeStyle;fontSize=12;html=1;endArrow=ERoneToMany;rounded=0;entryX=1;entryY=0.5;entryDx=0;entryDy=0;exitX=0;exitY=0.5;exitDx=0;exitDy=0;" parent="WIyWlLk6GJQsqaUBKTNV-1" source="mLq6lORTRm4kwP11X9Qu-117" target="mLq6lORTRm4kwP11X9Qu-146" edge="1">
          <mxGeometry width="100" height="100" relative="1" as="geometry">
            <mxPoint x="240" y="70" as="sourcePoint" />
            <mxPoint x="340" y="-30" as="targetPoint" />
          </mxGeometry>
        </mxCell>
        <mxCell id="mLq6lORTRm4kwP11X9Qu-150" value="Evento" style="whiteSpace=wrap;html=1;rounded=1;glass=0;strokeWidth=1;shadow=0;" parent="WIyWlLk6GJQsqaUBKTNV-1" vertex="1">
          <mxGeometry x="630" y="220" width="120" height="60" as="geometry" />
        </mxCell>
        <mxCell id="mLq6lORTRm4kwP11X9Qu-152" value="" style="edgeStyle=orthogonalEdgeStyle;fontSize=12;html=1;endArrow=ERmandOne;rounded=0;exitX=0.5;exitY=1;exitDx=0;exitDy=0;" parent="WIyWlLk6GJQsqaUBKTNV-1" source="mLq6lORTRm4kwP11X9Qu-110" edge="1">
          <mxGeometry width="100" height="100" relative="1" as="geometry">
            <mxPoint x="600" y="210" as="sourcePoint" />
            <mxPoint x="691" y="220" as="targetPoint" />
          </mxGeometry>
        </mxCell>
        <mxCell id="mLq6lORTRm4kwP11X9Qu-154" value="" style="edgeStyle=orthogonalEdgeStyle;fontSize=12;html=1;endArrow=ERoneToMany;rounded=0;entryX=0.5;entryY=1;entryDx=0;entryDy=0;exitX=0.5;exitY=0;exitDx=0;exitDy=0;" parent="WIyWlLk6GJQsqaUBKTNV-1" source="mLq6lORTRm4kwP11X9Qu-110" target="mLq6lORTRm4kwP11X9Qu-109" edge="1">
          <mxGeometry width="100" height="100" relative="1" as="geometry">
            <mxPoint x="600" y="210" as="sourcePoint" />
            <mxPoint x="700" y="110" as="targetPoint" />
          </mxGeometry>
        </mxCell>
        <mxCell id="mLq6lORTRm4kwP11X9Qu-155" value="" style="edgeStyle=orthogonalEdgeStyle;fontSize=12;html=1;endArrow=ERzeroToMany;endFill=1;rounded=0;entryX=0.5;entryY=1;entryDx=0;entryDy=0;exitX=0.5;exitY=1;exitDx=0;exitDy=0;" parent="WIyWlLk6GJQsqaUBKTNV-1" source="mLq6lORTRm4kwP11X9Qu-114" target="mLq6lORTRm4kwP11X9Qu-150" edge="1">
          <mxGeometry width="100" height="100" relative="1" as="geometry">
            <mxPoint x="540" y="390" as="sourcePoint" />
            <mxPoint x="640" y="290" as="targetPoint" />
          </mxGeometry>
        </mxCell>
        <mxCell id="mLq6lORTRm4kwP11X9Qu-156" value="Evento" style="whiteSpace=wrap;html=1;rounded=1;glass=0;strokeWidth=1;shadow=0;" parent="WIyWlLk6GJQsqaUBKTNV-1" vertex="1">
          <mxGeometry x="-60" y="150" width="120" height="60" as="geometry" />
        </mxCell>
        <mxCell id="mLq6lORTRm4kwP11X9Qu-157" value="" style="edgeStyle=orthogonalEdgeStyle;fontSize=12;html=1;endArrow=ERzeroToMany;endFill=1;rounded=0;exitX=0.5;exitY=1;exitDx=0;exitDy=0;entryX=0.5;entryY=0;entryDx=0;entryDy=0;" parent="WIyWlLk6GJQsqaUBKTNV-1" source="mLq6lORTRm4kwP11X9Qu-140" target="mLq6lORTRm4kwP11X9Qu-156" edge="1">
          <mxGeometry width="100" height="100" relative="1" as="geometry">
            <mxPoint x="280" y="240" as="sourcePoint" />
            <mxPoint y="140" as="targetPoint" />
          </mxGeometry>
        </mxCell>
        <mxCell id="mLq6lORTRm4kwP11X9Qu-158" value="Evento" style="whiteSpace=wrap;html=1;rounded=1;glass=0;strokeWidth=1;shadow=0;" parent="WIyWlLk6GJQsqaUBKTNV-1" vertex="1">
          <mxGeometry x="-620" y="20" width="120" height="60" as="geometry" />
        </mxCell>
        <mxCell id="mLq6lORTRm4kwP11X9Qu-159" value="" style="edgeStyle=orthogonalEdgeStyle;fontSize=12;html=1;endArrow=ERoneToMany;rounded=0;entryX=0.5;entryY=0;entryDx=0;entryDy=0;" parent="WIyWlLk6GJQsqaUBKTNV-1" source="mLq6lORTRm4kwP11X9Qu-160" target="mLq6lORTRm4kwP11X9Qu-158" edge="1">
          <mxGeometry width="100" height="100" relative="1" as="geometry">
            <mxPoint x="-560" y="-50" as="sourcePoint" />
            <mxPoint x="-530" y="-200" as="targetPoint" />
          </mxGeometry>
        </mxCell>
        <mxCell id="mLq6lORTRm4kwP11X9Qu-161" value="" style="edgeStyle=orthogonalEdgeStyle;fontSize=12;html=1;endArrow=ERoneToMany;rounded=0;entryX=0.889;entryY=1.067;entryDx=0;entryDy=0;entryPerimeter=0;exitX=0.5;exitY=0;exitDx=0;exitDy=0;" parent="WIyWlLk6GJQsqaUBKTNV-1" source="mLq6lORTRm4kwP11X9Qu-160" target="mLq6lORTRm4kwP11X9Qu-15" edge="1">
          <mxGeometry width="100" height="100" relative="1" as="geometry">
            <mxPoint x="-460" y="-50" as="sourcePoint" />
            <mxPoint x="-560" y="-100" as="targetPoint" />
            <Array as="points">
              <mxPoint x="-560" y="-80" />
              <mxPoint x="-561" y="-80" />
            </Array>
          </mxGeometry>
        </mxCell>
        <mxCell id="mLq6lORTRm4kwP11X9Qu-160" value="Competir" style="rhombus;whiteSpace=wrap;html=1;rounded=1;" parent="WIyWlLk6GJQsqaUBKTNV-1" vertex="1">
          <mxGeometry x="-600" y="-90" width="80" height="80" as="geometry" />
        </mxCell>
        <mxCell id="mLq6lORTRm4kwP11X9Qu-163" value="Atleta" style="whiteSpace=wrap;html=1;rounded=1;glass=0;strokeWidth=1;shadow=0;" parent="WIyWlLk6GJQsqaUBKTNV-1" vertex="1">
          <mxGeometry x="-980" y="180" width="120" height="60" as="geometry" />
        </mxCell>
        <mxCell id="mLq6lORTRm4kwP11X9Qu-164" value="Participante" style="rhombus;whiteSpace=wrap;html=1;rounded=1;" parent="WIyWlLk6GJQsqaUBKTNV-1" vertex="1">
          <mxGeometry x="-1000" y="10" width="80" height="80" as="geometry" />
        </mxCell>
        <mxCell id="mLq6lORTRm4kwP11X9Qu-165" value="" style="edgeStyle=orthogonalEdgeStyle;fontSize=12;html=1;endArrow=ERmandOne;rounded=0;entryX=0;entryY=1;entryDx=0;entryDy=0;exitX=0.5;exitY=0;exitDx=0;exitDy=0;" parent="WIyWlLk6GJQsqaUBKTNV-1" source="mLq6lORTRm4kwP11X9Qu-164" target="mLq6lORTRm4kwP11X9Qu-15" edge="1">
          <mxGeometry width="100" height="100" relative="1" as="geometry">
            <mxPoint x="-810" y="70" as="sourcePoint" />
            <mxPoint x="-710" y="-30" as="targetPoint" />
          </mxGeometry>
        </mxCell>
        <mxCell id="mLq6lORTRm4kwP11X9Qu-167" value="" style="edgeStyle=none;rounded=0;orthogonalLoop=1;jettySize=auto;html=1;" parent="WIyWlLk6GJQsqaUBKTNV-1" source="mLq6lORTRm4kwP11X9Qu-166" target="mLq6lORTRm4kwP11X9Qu-164" edge="1">
          <mxGeometry relative="1" as="geometry" />
        </mxCell>
        <mxCell id="mLq6lORTRm4kwP11X9Qu-166" value="Score" style="ellipse;whiteSpace=wrap;html=1;rounded=1;glass=0;strokeWidth=1;shadow=0;" parent="WIyWlLk6GJQsqaUBKTNV-1" vertex="1">
          <mxGeometry x="-1110" y="10" width="70" height="80" as="geometry" />
        </mxCell>
        <mxCell id="mLq6lORTRm4kwP11X9Qu-168" value="" style="edgeStyle=orthogonalEdgeStyle;fontSize=12;html=1;endArrow=ERmandOne;rounded=0;entryX=0.25;entryY=1;entryDx=0;entryDy=0;exitX=0.5;exitY=0;exitDx=0;exitDy=0;" parent="WIyWlLk6GJQsqaUBKTNV-1" source="mLq6lORTRm4kwP11X9Qu-170" target="mLq6lORTRm4kwP11X9Qu-15" edge="1">
          <mxGeometry width="100" height="100" relative="1" as="geometry">
            <mxPoint x="-830" y="70" as="sourcePoint" />
            <mxPoint x="-631" y="-140" as="targetPoint" />
            <Array as="points">
              <mxPoint x="-790" y="-40" />
              <mxPoint x="-618" y="-40" />
            </Array>
          </mxGeometry>
        </mxCell>
        <mxCell id="mLq6lORTRm4kwP11X9Qu-169" value="" style="edgeStyle=orthogonalEdgeStyle;fontSize=12;html=1;endArrow=ERmandOne;rounded=0;entryX=0.5;entryY=1;entryDx=0;entryDy=0;" parent="WIyWlLk6GJQsqaUBKTNV-1" target="mLq6lORTRm4kwP11X9Qu-15" edge="1">
          <mxGeometry width="100" height="100" relative="1" as="geometry">
            <mxPoint x="-700" y="140" as="sourcePoint" />
            <mxPoint x="-601" y="-120" as="targetPoint" />
            <Array as="points">
              <mxPoint x="-700" y="90" />
              <mxPoint x="-700" y="-20" />
              <mxPoint x="-600" y="-20" />
              <mxPoint x="-600" y="-140" />
              <mxPoint x="-596" y="-140" />
            </Array>
          </mxGeometry>
        </mxCell>
        <mxCell id="mLq6lORTRm4kwP11X9Qu-170" value="Miembro" style="rhombus;whiteSpace=wrap;html=1;rounded=1;" parent="WIyWlLk6GJQsqaUBKTNV-1" vertex="1">
          <mxGeometry x="-830" y="70" width="80" height="80" as="geometry" />
        </mxCell>
        <mxCell id="mLq6lORTRm4kwP11X9Qu-172" value="" style="edgeStyle=none;rounded=0;orthogonalLoop=1;jettySize=auto;html=1;" parent="WIyWlLk6GJQsqaUBKTNV-1" source="mLq6lORTRm4kwP11X9Qu-171" target="mLq6lORTRm4kwP11X9Qu-170" edge="1">
          <mxGeometry relative="1" as="geometry" />
        </mxCell>
        <mxCell id="mLq6lORTRm4kwP11X9Qu-171" value="Score" style="ellipse;whiteSpace=wrap;html=1;rounded=1;glass=0;strokeWidth=1;shadow=0;" parent="WIyWlLk6GJQsqaUBKTNV-1" vertex="1">
          <mxGeometry x="-887" y="10" width="60" height="80" as="geometry" />
        </mxCell>
        <mxCell id="mLq6lORTRm4kwP11X9Qu-179" value="" style="edgeStyle=orthogonalEdgeStyle;fontSize=12;html=1;endArrow=ERoneToMany;rounded=0;entryX=1;entryY=0.5;entryDx=0;entryDy=0;exitX=0.5;exitY=1;exitDx=0;exitDy=0;" parent="WIyWlLk6GJQsqaUBKTNV-1" source="mLq6lORTRm4kwP11X9Qu-170" target="mLq6lORTRm4kwP11X9Qu-163" edge="1">
          <mxGeometry width="100" height="100" relative="1" as="geometry">
            <mxPoint x="-810" y="80" as="sourcePoint" />
            <mxPoint x="-790" y="230" as="targetPoint" />
          </mxGeometry>
        </mxCell>
        <mxCell id="mLq6lORTRm4kwP11X9Qu-180" value="" style="edgeStyle=orthogonalEdgeStyle;fontSize=12;html=1;endArrow=ERoneToMany;rounded=0;entryX=0.167;entryY=-0.033;entryDx=0;entryDy=0;entryPerimeter=0;" parent="WIyWlLk6GJQsqaUBKTNV-1" target="mLq6lORTRm4kwP11X9Qu-163" edge="1">
          <mxGeometry width="100" height="100" relative="1" as="geometry">
            <mxPoint x="-960" y="91" as="sourcePoint" />
            <mxPoint x="-700" y="-10" as="targetPoint" />
          </mxGeometry>
        </mxCell>
        <mxCell id="mLq6lORTRm4kwP11X9Qu-181" value="Suplente" style="rhombus;whiteSpace=wrap;html=1;rounded=1;" parent="WIyWlLk6GJQsqaUBKTNV-1" vertex="1">
          <mxGeometry x="-740" y="130" width="80" height="80" as="geometry" />
        </mxCell>
        <mxCell id="mLq6lORTRm4kwP11X9Qu-182" value="Evento" style="whiteSpace=wrap;html=1;rounded=1;glass=0;strokeWidth=1;shadow=0;" parent="WIyWlLk6GJQsqaUBKTNV-1" vertex="1">
          <mxGeometry x="-1950" y="60" width="120" height="60" as="geometry" />
        </mxCell>
        <mxCell id="mLq6lORTRm4kwP11X9Qu-184" value="" style="edgeStyle=none;rounded=0;orthogonalLoop=1;jettySize=auto;html=1;" parent="WIyWlLk6GJQsqaUBKTNV-1" source="mLq6lORTRm4kwP11X9Qu-183" target="mLq6lORTRm4kwP11X9Qu-181" edge="1">
          <mxGeometry relative="1" as="geometry" />
        </mxCell>
        <mxCell id="mLq6lORTRm4kwP11X9Qu-183" value="Score" style="ellipse;whiteSpace=wrap;html=1;rounded=1;glass=0;strokeWidth=1;shadow=0;" parent="WIyWlLk6GJQsqaUBKTNV-1" vertex="1">
          <mxGeometry x="-630" y="130" width="60" height="80" as="geometry" />
        </mxCell>
        <mxCell id="mLq6lORTRm4kwP11X9Qu-186" value="Competir" style="rhombus;whiteSpace=wrap;html=1;rounded=1;" parent="WIyWlLk6GJQsqaUBKTNV-1" vertex="1">
          <mxGeometry x="-1991" y="-70" width="80" height="80" as="geometry" />
        </mxCell>
        <mxCell id="mLq6lORTRm4kwP11X9Qu-187" value="" style="edgeStyle=orthogonalEdgeStyle;fontSize=12;html=1;endArrow=ERzeroToMany;endFill=1;rounded=0;exitX=0.5;exitY=1;exitDx=0;exitDy=0;entryX=0.5;entryY=0;entryDx=0;entryDy=0;" parent="WIyWlLk6GJQsqaUBKTNV-1" source="mLq6lORTRm4kwP11X9Qu-186" target="mLq6lORTRm4kwP11X9Qu-182" edge="1">
          <mxGeometry width="100" height="100" relative="1" as="geometry">
            <mxPoint x="-2290" y="30" as="sourcePoint" />
            <mxPoint x="-1890" y="50" as="targetPoint" />
          </mxGeometry>
        </mxCell>
        <mxCell id="mLq6lORTRm4kwP11X9Qu-188" value="" style="edgeStyle=orthogonalEdgeStyle;fontSize=12;html=1;endArrow=ERoneToMany;rounded=0;entryX=0.87;entryY=1.022;entryDx=0;entryDy=0;entryPerimeter=0;" parent="WIyWlLk6GJQsqaUBKTNV-1" source="mLq6lORTRm4kwP11X9Qu-186" target="mLq6lORTRm4kwP11X9Qu-14" edge="1">
          <mxGeometry width="100" height="100" relative="1" as="geometry">
            <mxPoint x="-2290" y="30" as="sourcePoint" />
            <mxPoint x="-2190" y="-70" as="targetPoint" />
          </mxGeometry>
        </mxCell>
        <mxCell id="mLq6lORTRm4kwP11X9Qu-190" value="" style="edgeStyle=none;rounded=0;orthogonalLoop=1;jettySize=auto;html=1;" parent="WIyWlLk6GJQsqaUBKTNV-1" source="mLq6lORTRm4kwP11X9Qu-189" target="mLq6lORTRm4kwP11X9Qu-186" edge="1">
          <mxGeometry relative="1" as="geometry" />
        </mxCell>
        <mxCell id="mLq6lORTRm4kwP11X9Qu-189" value="Score" style="ellipse;whiteSpace=wrap;html=1;rounded=1;glass=0;strokeWidth=1;shadow=0;" parent="WIyWlLk6GJQsqaUBKTNV-1" vertex="1">
          <mxGeometry x="-1880" y="-70" width="70" height="80" as="geometry" />
        </mxCell>
        <mxCell id="mLq6lORTRm4kwP11X9Qu-192" value="Atleta" style="whiteSpace=wrap;html=1;rounded=1;glass=0;strokeWidth=1;shadow=0;" parent="WIyWlLk6GJQsqaUBKTNV-1" vertex="1">
          <mxGeometry x="-2320" y="200" width="120" height="60" as="geometry" />
        </mxCell>
        <mxCell id="mLq6lORTRm4kwP11X9Qu-193" value="Participante" style="rhombus;whiteSpace=wrap;html=1;rounded=1;" parent="WIyWlLk6GJQsqaUBKTNV-1" vertex="1">
          <mxGeometry x="-2440" y="60" width="80" height="80" as="geometry" />
        </mxCell>
        <mxCell id="mLq6lORTRm4kwP11X9Qu-194" value="Miembro" style="rhombus;whiteSpace=wrap;html=1;rounded=1;" parent="WIyWlLk6GJQsqaUBKTNV-1" vertex="1">
          <mxGeometry x="-2269" y="70" width="80" height="80" as="geometry" />
        </mxCell>
        <mxCell id="mLq6lORTRm4kwP11X9Qu-195" value="Suplente" style="rhombus;whiteSpace=wrap;html=1;rounded=1;" parent="WIyWlLk6GJQsqaUBKTNV-1" vertex="1">
          <mxGeometry x="-2090" y="120" width="80" height="80" as="geometry" />
        </mxCell>
        <mxCell id="mLq6lORTRm4kwP11X9Qu-197" value="" style="fontSize=12;html=1;endArrow=ERzeroToMany;endFill=1;rounded=0;edgeStyle=orthogonalEdgeStyle;entryX=0.75;entryY=1;entryDx=0;entryDy=0;exitX=0.5;exitY=1;exitDx=0;exitDy=0;" parent="WIyWlLk6GJQsqaUBKTNV-1" source="mLq6lORTRm4kwP11X9Qu-181" target="mLq6lORTRm4kwP11X9Qu-163" edge="1">
          <mxGeometry width="100" height="100" relative="1" as="geometry">
            <mxPoint x="-1030" y="150" as="sourcePoint" />
            <mxPoint x="-930" y="50" as="targetPoint" />
          </mxGeometry>
        </mxCell>
        <mxCell id="mLq6lORTRm4kwP11X9Qu-198" value="" style="fontSize=12;html=1;endArrow=ERzeroToMany;endFill=1;rounded=0;edgeStyle=orthogonalEdgeStyle;entryX=0.825;entryY=1.022;entryDx=0;entryDy=0;exitX=0.5;exitY=1;exitDx=0;exitDy=0;entryPerimeter=0;" parent="WIyWlLk6GJQsqaUBKTNV-1" source="mLq6lORTRm4kwP11X9Qu-195" target="mLq6lORTRm4kwP11X9Qu-192" edge="1">
          <mxGeometry width="100" height="100" relative="1" as="geometry">
            <mxPoint x="-1972" y="290" as="sourcePoint" />
            <mxPoint x="-2162" y="320" as="targetPoint" />
            <Array as="points">
              <mxPoint x="-2050" y="290" />
              <mxPoint x="-2221" y="290" />
            </Array>
          </mxGeometry>
        </mxCell>
        <mxCell id="mLq6lORTRm4kwP11X9Qu-199" value="" style="edgeStyle=orthogonalEdgeStyle;fontSize=12;html=1;endArrow=ERmandOne;rounded=0;entryX=0.581;entryY=1.011;entryDx=0;entryDy=0;entryPerimeter=0;exitX=0.5;exitY=0;exitDx=0;exitDy=0;" parent="WIyWlLk6GJQsqaUBKTNV-1" source="mLq6lORTRm4kwP11X9Qu-195" target="mLq6lORTRm4kwP11X9Qu-14" edge="1">
          <mxGeometry width="100" height="100" relative="1" as="geometry">
            <mxPoint x="-2130" y="70" as="sourcePoint" />
            <mxPoint x="-2030" y="-30" as="targetPoint" />
          </mxGeometry>
        </mxCell>
        <mxCell id="mLq6lORTRm4kwP11X9Qu-200" value="" style="edgeStyle=orthogonalEdgeStyle;fontSize=12;html=1;endArrow=ERmandOne;rounded=0;exitX=0.5;exitY=0;exitDx=0;exitDy=0;entryX=0;entryY=0.5;entryDx=0;entryDy=0;" parent="WIyWlLk6GJQsqaUBKTNV-1" source="mLq6lORTRm4kwP11X9Qu-193" target="mLq6lORTRm4kwP11X9Qu-14" edge="1">
          <mxGeometry width="100" height="100" relative="1" as="geometry">
            <mxPoint x="-2412.5" y="39" as="sourcePoint" />
            <mxPoint x="-2230" y="-170" as="targetPoint" />
          </mxGeometry>
        </mxCell>
        <mxCell id="mLq6lORTRm4kwP11X9Qu-201" value="" style="edgeStyle=orthogonalEdgeStyle;fontSize=12;html=1;endArrow=ERmandOne;rounded=0;entryX=0.25;entryY=1;entryDx=0;entryDy=0;exitX=0.5;exitY=0;exitDx=0;exitDy=0;" parent="WIyWlLk6GJQsqaUBKTNV-1" source="mLq6lORTRm4kwP11X9Qu-194" target="mLq6lORTRm4kwP11X9Qu-14" edge="1">
          <mxGeometry width="100" height="100" relative="1" as="geometry">
            <mxPoint x="-2269" y="79" as="sourcePoint" />
            <mxPoint x="-2217" y="-150" as="targetPoint" />
          </mxGeometry>
        </mxCell>
        <mxCell id="mLq6lORTRm4kwP11X9Qu-202" value="" style="edgeStyle=orthogonalEdgeStyle;fontSize=12;html=1;endArrow=ERoneToMany;rounded=0;entryX=0;entryY=0.75;entryDx=0;entryDy=0;exitX=0.5;exitY=1;exitDx=0;exitDy=0;" parent="WIyWlLk6GJQsqaUBKTNV-1" source="mLq6lORTRm4kwP11X9Qu-193" target="mLq6lORTRm4kwP11X9Qu-192" edge="1">
          <mxGeometry width="100" height="100" relative="1" as="geometry">
            <mxPoint x="-2379.5" y="14.75" as="sourcePoint" />
            <mxPoint x="-2279.5" y="-85.25" as="targetPoint" />
          </mxGeometry>
        </mxCell>
        <mxCell id="mLq6lORTRm4kwP11X9Qu-203" value="" style="edgeStyle=orthogonalEdgeStyle;fontSize=12;html=1;endArrow=ERoneToMany;rounded=0;entryX=0.75;entryY=0;entryDx=0;entryDy=0;exitX=0.5;exitY=1;exitDx=0;exitDy=0;" parent="WIyWlLk6GJQsqaUBKTNV-1" source="mLq6lORTRm4kwP11X9Qu-194" target="mLq6lORTRm4kwP11X9Qu-192" edge="1">
          <mxGeometry width="100" height="100" relative="1" as="geometry">
            <mxPoint x="-2400" y="159.45" as="sourcePoint" />
            <mxPoint x="-2300" y="59.44999999999999" as="targetPoint" />
          </mxGeometry>
        </mxCell>
      </root>
    </mxGraphModel>
  </diagram>
</mxfile>
